<?xml version="1.0" standalone="no"?>
<!DOCTYPE svg PUBLIC "-//W3C//DTD SVG 20010904//EN"
 "http://www.w3.org/TR/2001/REC-SVG-20010904/DTD/svg10.dtd">
<svg version="1.0" xmlns="http://www.w3.org/2000/svg"
 width="242.000000pt" height="45.000000pt" viewBox="0 0 242.000000 45.000000"
 preserveAspectRatio="xMidYMid meet">

<g transform="translate(0.000000,45.000000) scale(0.100000,-0.100000)"
fill="#000000" stroke="none">
<path d="M555 440 c28 -12 37 -12 30 0 -3 6 -16 10 -28 9 -21 0 -21 -1 -2 -9z"/>
<path d="M226 424 c-27 -26 -18 -35 19 -17 19 9 35 20 35 25 0 14 -38 9 -54
-8z"/>
<path d="M552 396 c-9 -21 -8 -25 9 -29 22 -6 35 13 25 38 -8 22 -21 18 -34
-9z"/>
<path d="M366 368 c-37 -40 -38 -43 -18 -46 27 -4 72 -56 73 -85 0 -13 18 -37
41 -57 l41 -35 -5 60 c-2 33 -12 77 -22 98 -21 43 -17 54 13 37 29 -15 26 -7
-10 35 -17 19 -40 35 -52 35 -11 0 -38 -19 -61 -42z"/>
<path d="M163 370 c-13 -5 -23 -18 -23 -29 0 -33 14 -31 31 5 9 19 16 34 15
33 0 0 -11 -4 -23 -9z"/>
<path d="M648 333 c-30 -8 -22 -43 12 -54 47 -17 39 -34 -15 -30 -19 1 -19 1
-1 -10 13 -8 25 -8 43 0 30 14 26 31 -10 49 -35 17 -34 32 1 32 21 0 24 2 12
10 -8 5 -17 9 -20 9 -3 -1 -13 -3 -22 -6z"/>
<path d="M1068 326 c-34 -17 -36 -60 -4 -81 17 -11 32 -14 48 -9 21 7 20 9
-12 14 -31 4 -35 8 -35 35 0 27 3 30 33 30 17 0 32 3 32 6 0 13 -39 16 -62 5z"/>
<path d="M1423 329 c-44 -16 -37 -83 11 -95 13 -3 34 -1 46 6 17 9 20 19 18
47 -2 30 -8 38 -28 43 -14 4 -35 4 -47 -1z m56 -26 c13 -25 -5 -53 -34 -53
-15 0 -26 7 -30 20 -13 41 43 70 64 33z"/>
<path d="M1552 329 c-41 -15 -36 -80 8 -94 46 -15 79 20 66 70 -6 25 -40 36
-74 24z m61 -31 c8 -12 7 -21 -2 -32 -19 -23 -58 -20 -66 4 -14 43 44 67 68
28z"/>
<path d="M1839 326 c-34 -17 -33 -65 2 -85 24 -13 29 -13 53 2 58 38 8 115
-55 83z m56 -41 c0 -27 -3 -30 -30 -30 -21 0 -31 5 -33 18 -6 33 6 49 35 45
24 -3 28 -8 28 -33z"/>
<path d="M730 280 c0 -27 5 -50 10 -50 6 0 10 6 10 14 0 26 21 29 46 5 30 -28
32 -14 2 18 -21 22 -21 23 -3 43 24 27 7 26 -22 -2 l-23 -21 0 21 c0 12 -4 22
-10 22 -5 0 -10 -22 -10 -50z"/>
<path d="M850 280 l0 -50 35 0 c19 0 35 5 35 10 0 6 -14 10 -31 10 -36 0 -35
21 2 31 l24 6 -24 4 c-38 6 -37 27 1 32 l33 4 -37 1 -38 2 0 -50z"/>
<path d="M953 323 c13 -3 17 -15 17 -49 0 -24 5 -44 10 -44 6 0 10 20 10 44 0
34 4 46 18 49 9 3 -3 5 -28 5 -25 0 -37 -2 -27 -5z"/>
<path d="M1160 279 c0 -31 4 -48 10 -44 6 3 10 15 10 26 0 14 7 19 25 19 20 0
25 -5 25 -25 0 -14 5 -25 10 -25 6 0 10 23 10 50 0 28 -4 50 -10 50 -5 0 -10
-9 -10 -20 0 -15 -7 -20 -25 -20 -18 0 -25 5 -25 20 0 11 -4 20 -10 20 -5 0
-10 -23 -10 -51z"/>
<path d="M1280 286 c0 -52 9 -60 55 -52 34 7 35 8 32 49 -3 42 -3 42 -45 45
l-42 3 0 -45z m68 22 c-7 -20 -48 -23 -48 -4 0 11 9 16 26 16 16 0 24 -5 22
-12z m0 -45 c-2 -10 -12 -18 -23 -18 -11 0 -21 8 -23 18 -3 13 3 17 23 17 20
0 26 -4 23 -17z"/>
<path d="M1660 280 c0 -27 5 -50 10 -50 6 0 10 9 10 20 0 26 17 25 40 -2 10
-13 21 -20 24 -17 4 3 -3 18 -15 33 -20 26 -20 28 -4 46 24 27 7 25 -22 -2
l-23 -21 0 21 c0 12 -4 22 -10 22 -5 0 -10 -22 -10 -50z"/>
<path d="M1950 279 c0 -31 4 -48 10 -44 6 3 10 18 10 33 l0 27 31 -32 c16 -18
32 -33 35 -33 2 0 4 23 4 50 0 28 -4 50 -10 50 -5 0 -10 -15 -10 -32 l0 -33
-26 33 c-14 17 -30 32 -35 32 -5 0 -9 -23 -9 -51z"/>
<path d="M2070 280 l0 -50 35 0 c19 0 35 5 35 10 0 6 -11 10 -25 10 -22 0 -25
4 -25 40 0 22 -4 40 -10 40 -5 0 -10 -22 -10 -50z"/>
<path d="M2160 286 c0 -25 5 -48 10 -51 6 -4 10 13 10 44 0 28 -4 51 -10 51
-5 0 -10 -20 -10 -44z"/>
<path d="M2222 278 c1 -36 2 -43 5 -20 5 40 16 40 43 2 12 -17 26 -28 31 -25
12 8 12 95 -1 95 -5 0 -10 -15 -10 -32 l-1 -33 -27 33 c-15 18 -30 32 -34 32
-5 0 -7 -24 -6 -52z"/>
<path d="M2340 280 l0 -50 40 0 c22 0 40 5 40 10 0 6 -13 10 -30 10 -39 0 -41
27 -2 33 l27 4 -27 2 c-17 0 -28 7 -28 15 0 8 12 17 28 19 22 3 20 4 -10 6
l-38 1 0 -50z"/>
<path d="M120 266 c0 -20 9 -64 20 -97 22 -64 21 -80 -5 -59 -25 20 -18 -5 11
-39 32 -38 53 -39 93 -5 30 25 64 73 43 60 -17 -10 -71 43 -78 77 -4 19 -22
45 -45 66 l-39 33 0 -36z"/>
<path d="M683 143 c32 -2 81 -2 110 0 29 2 3 3 -58 3 -60 0 -84 -1 -52 -3z"/>
<path d="M2263 143 c32 -2 81 -2 110 0 29 2 3 3 -58 3 -60 0 -84 -1 -52 -3z"/>
<path d="M453 110 c-7 -18 -29 -40 -57 -57 -47 -29 -58 -43 -30 -43 8 0 27 13
42 29 15 16 37 34 50 40 14 7 22 21 22 36 0 34 -13 31 -27 -5z"/>
<path d="M34 68 c-9 -30 14 -48 32 -24 19 26 18 33 -6 39 -13 3 -21 -1 -26
-15z"/>
<path d="M40 10 c8 -5 22 -9 30 -9 10 0 8 3 -5 9 -27 12 -43 12 -25 0z"/>
</g>
</svg>
