<svg xmlns="http://www.w3.org/2000/svg" width="422.285" height="49.056" viewBox="0 0 422.285 49.056">
  <g id="Group_15490" data-name="Group 15490" transform="translate(0 0)">
    <g id="Group_15513" data-name="Group 15513" transform="translate(0 0)">
      <path id="Path_41315" data-name="Path 41315" d="M25.276,5.72A14.806,14.806,0,0,0,4.336,26.658L14.807,37.125,25.276,26.658a14.808,14.808,0,0,0,0-20.938" transform="translate(0 1.408)" fill="#ffd300"/>
      <path id="Path_41316" data-name="Path 41316" d="M35.681,5.72A14.805,14.805,0,0,0,14.743,26.658L25.212,37.125,35.681,26.658a14.808,14.808,0,0,0,0-20.938" transform="translate(10.59 1.408)" fill="#7aaf3a"/>
      <path id="Path_41317" data-name="Path 41317" d="M30.491,10.935A14.805,14.805,0,0,0,9.553,31.873L20.024,42.342,30.491,31.873a14.8,14.8,0,0,0,0-20.938" transform="translate(5.309 6.714)" fill="#1fa7a8"/>
      <path id="Path_41335" data-name="Path 41335" d="M48.308,15.17c-.27,3.611-.549,7.221-.809,10.832-.41,5.659-.787,11.318-1.208,16.975-.218,2.907-1.931,4.568-4.62,4.588-3,.02-4.785-1.662-4.634-4.693.22-4.4.636-8.8.968-13.2q.375-5.005.761-10.007c.254-3.28.516-6.561.789-10-.724-.056-1.38-.089-2.032-.159a3.384,3.384,0,0,1-3.151-2.744C34,4.919,34.527,3.4,36.048,2.654A13.176,13.176,0,0,1,39.482,1.59a18.565,18.565,0,0,1,3.484-.19c7.945.095,11.173,2.106,13.919,9.7,2.367,6.553,5.028,13,7.7,19.852.319-.753.523-1.2.7-1.66,2.893-7.552,5.758-15.113,8.677-22.653,1.622-4.188,4.866-5.9,9.276-5.011a6.128,6.128,0,0,1,5.292,5.9c.619,6.855,1.162,13.719,1.729,20.581.361,4.348.684,8.7,1.075,13.045.3,3.345-.874,5.526-3.454,6.234-3.266.894-5.984-.69-6.4-4.027-.44-3.555-.573-7.148-.815-10.729-.4-5.839-.775-11.683-1.441-17.6-.19.456-.4.91-.571,1.372-2.9,7.7-5.774,15.416-8.71,23.1a6.166,6.166,0,0,1-8.229,3.813,6.664,6.664,0,0,1-3.771-4.174Q53.608,27.9,49.21,16.673c-.2-.523-.436-1.033-.654-1.547-.083.012-.165.028-.248.044" transform="translate(34.858 1.42)" fill="#434343"/>
      <path id="Path_41336" data-name="Path 41336" d="M147.213,4.243c1.56.759,2.956,1.757,3.3,3.615.66,3.535-2.425,6.1-5.919,4.9-1.229-.424-2.379-1.083-3.569-1.622a15.367,15.367,0,0,0-9.611-1.406c-2.243.464-3.579,1.727-3.833,3.621a4.112,4.112,0,0,0,2.74,4.634c2.833,1.1,5.79,1.88,8.689,2.827,1.838.6,3.7,1.14,5.482,1.892,4.477,1.9,7.245,5.167,7.41,10.178.172,5.149-1.834,9.293-6.339,11.948-4.913,2.9-10.283,3.2-15.779,2.34A27.127,27.127,0,0,1,119.7,43.653a7.616,7.616,0,0,1-2.671-3.052,3.8,3.8,0,0,1,1.035-4.517,4.034,4.034,0,0,1,4.58-.857,30.378,30.378,0,0,1,3.077,1.634c3.51,1.927,7.19,3.26,11.252,2.534a7.263,7.263,0,0,0,3.583-1.668,4.185,4.185,0,0,0-1.336-6.888c-2.643-1.158-5.5-1.808-8.24-2.774a48.726,48.726,0,0,1-7.132-2.808A11.711,11.711,0,0,1,117.4,12.928c.567-5.429,3.781-8.855,8.849-10.384,2.744-.825,9.059-2.927,20.966,1.7" transform="translate(118.703 1.37)" fill="#434343"/>
      <path id="Path_41337" data-name="Path 41337" d="M159.93,7.872c-.629,0-1.059.02-1.489,0a3.363,3.363,0,0,1-3.393-2.816A3.475,3.475,0,0,1,156.91,1.01a10.579,10.579,0,0,1,9.914.464,5.05,5.05,0,0,1,2.383,4.574c.054,3.928.04,7.858.057,11.786,0,.462,0,.924,0,1.56,1.307-1.124,2.362-2.185,3.569-3.03a14.455,14.455,0,0,1,12.337-2.171,9.746,9.746,0,0,1,7.606,9.492c.153,5.141.069,10.285.089,15.428,0,.575,0,1.148,0,1.9.68,0,1.239.022,1.8,0a3.15,3.15,0,0,1,3.3,1.882,3.931,3.931,0,0,1-.781,4.192c-2.572,2.679-10.223,2.221-12.361-.821a8.152,8.152,0,0,1-1.059-2.808,11.134,11.134,0,0,1-.133-2.465c-.012-4.122.01-8.248-.01-12.371-.028-5.419-3.28-7.979-8.482-6.4a21.34,21.34,0,0,0-5.254,2.956,2.445,2.445,0,0,0-.6,1.779c-.046,5.772.01,11.548-.044,17.32-.03,3.517-2.99,5.532-6.325,4.392a3.931,3.931,0,0,1-2.782-3.079,11.943,11.943,0,0,1-.2-2.308q-.021-16.738-.01-33.476Z" transform="translate(157.666 0)" fill="#434343"/>
      <path id="Path_41338" data-name="Path 41338" d="M210.26,34.144h1.9a3.292,3.292,0,0,1,3.2,2.094,3.537,3.537,0,0,1-.872,4,5.441,5.441,0,0,1-1.848,1.122,10.872,10.872,0,0,1-8.355-.391c-1.253-.621-2.185-1.894-3.408-3,.022-.016-.27.2-.561.42a16.561,16.561,0,0,1-15.914,2.806,9.2,9.2,0,0,1-6.545-8.714c-.2-4.192,1.683-7.293,5.631-9.145,4.011-1.882,8.26-1.925,12.545-1.483,1.586.163,3.155.484,5,.779a32.679,32.679,0,0,0-.295-4.652,4.74,4.74,0,0,0-5.227-3.724,37.951,37.951,0,0,0-7.336,1.438,25.232,25.232,0,0,0-3.323,1.461c-2.13.9-4.112.315-5.044-1.447-1.051-1.985-.629-4.519,1.374-5.457A41.21,41.21,0,0,1,189.37,7.4a25.44,25.44,0,0,1,11.544.026c5.837,1.35,9.184,5.4,9.307,11.393.091,4.513.032,9.024.038,13.535,0,.533,0,1.063,0,1.785M194.3,27.329c-1.509.178-2.824.222-4.087.506-2.282.508-3.353,1.824-3.283,3.769.069,1.884,1.36,3.137,3.6,3.5a13.047,13.047,0,0,0,7.759-1.235c2.79-1.293,2.778-1.348,2.72-4.457-.016-.781-.264-1.152-1.019-1.257-1.955-.276-3.91-.569-5.689-.831" transform="translate(180.959 6.872)" fill="#434343"/>
      <path id="Path_41339" data-name="Path 41339" d="M75.234,27.345a7.551,7.551,0,0,0,6.307,6.972,13.176,13.176,0,0,0,10.334-1.632A15.842,15.842,0,0,1,94.961,31.1a3.65,3.65,0,0,1,4.162,1.259,3.773,3.773,0,0,1-.065,4.481,5.922,5.922,0,0,1-1.549,1.509C90.192,42.894,82.487,43.688,74.665,40c-6.529-3.079-9.815-10.3-8.7-17.966A17.938,17.938,0,0,1,94.77,10.43c4.079,3.18,5.8,7.537,5.635,12.638-.087,2.588-2.076,4.223-5.108,4.261-3.979.054-7.955.016-11.929.016Zm-.052-6.127H91.023c-.079-4.354-2.851-6.938-7.168-7.015-4.921-.085-8.431,2.831-8.673,7.015" transform="translate(66.906 6.723)" fill="#434343"/>
      <path id="Path_41340" data-name="Path 41340" d="M201.825,19.375c-1.1,0-1.975.032-2.841-.008a3.483,3.483,0,0,1-3.418-3.605,3.46,3.46,0,0,1,3.351-3.66c1-.061,2.013-.012,3.182-.012,0-1.961-.012-3.789,0-5.617a4.223,4.223,0,0,1,4.505-4.568c2.681-.006,4.362,1.673,4.445,4.489.052,1.794.044,3.589.065,5.381,0,.04.038.081.147.309,2.411,0,4.919-.044,7.422.012a3.568,3.568,0,0,1,3.24,5.248,3.323,3.323,0,0,1-3.244,2.034c-2.463.006-4.931,0-7.487,0-.052.468-.127.837-.129,1.2-.008,4.945-.02,9.892,0,14.839.012,3.038,1.461,4.231,4.451,3.646a21.551,21.551,0,0,0,2.764-.88c1.882-.648,3.5-.234,4.39,1.146a3.988,3.988,0,0,1-.642,5.052,6.612,6.612,0,0,1-1.951,1.227,18.094,18.094,0,0,1-10.971.962c-4.519-1.057-7.16-4.42-7.247-9.45-.093-5.332-.032-10.669-.038-16Z" transform="translate(198.989 1.938)" fill="#434343"/>
      <path id="Path_41341" data-name="Path 41341" d="M89.555,14.822c-.636,0-1.019,0-1.4,0a3.327,3.327,0,0,1-3.561-2.584A3.517,3.517,0,0,1,86.347,7.9a9.288,9.288,0,0,1,8.536-.008,4.738,4.738,0,0,1,2.6,4.112c.067.853.087,1.709.147,2.923.857-1.253,1.479-2.254,2.191-3.188,1.759-2.308,3.682-4.4,6.805-4.794,2.243-.28,3.857.488,4.588,2.209a4.508,4.508,0,0,1-1.41,5.354,10.923,10.923,0,0,1-2.272,1.269c-2.306,1-4.61,2.032-6.972,2.887a2.2,2.2,0,0,0-1.713,2.5c.095,5.28.071,10.568.026,15.852-.03,3.759-2.885,5.816-6.381,4.679-1.925-.627-2.917-2.1-2.923-4.507-.022-6.884-.01-13.769-.01-20.655Z" transform="translate(85.898 6.979)" fill="#434343"/>
      <path id="Path_41342" data-name="Path 41342" d="M104.182,14.784c-.765-.042-1.384-.063-2-.113a3.2,3.2,0,0,1-3.107-2.385,3.677,3.677,0,0,1,1.259-4.043c2.526-1.9,8.867-1.779,11.129.389a8.637,8.637,0,0,1,1.745,3.089,6.9,6.9,0,0,1,.29,2.439c.02,7.61.04,15.22,0,22.83-.018,3.664-2.869,5.746-6.264,4.677-1.983-.623-3.028-2.076-3.042-4.424-.03-5.284-.012-10.566-.012-15.852Z" transform="translate(100.646 7.026)" fill="#434343"/>
      <path id="Path_41343" data-name="Path 41343" d="M146.383,27.345a7.551,7.551,0,0,0,6.307,6.972,13.176,13.176,0,0,0,10.334-1.632A15.84,15.84,0,0,1,166.11,31.1a3.646,3.646,0,0,1,4.16,1.259,3.77,3.77,0,0,1-.062,4.481,5.954,5.954,0,0,1-1.549,1.509c-7.318,4.547-15.022,5.342-22.844,1.656-6.529-3.079-9.815-10.3-8.7-17.966a17.938,17.938,0,0,1,28.8-11.607c4.079,3.18,5.8,7.537,5.635,12.638-.087,2.588-2.076,4.223-5.11,4.261-3.976.054-7.953.016-11.927.016Zm-.054-6.127h15.843c-.081-4.354-2.853-6.938-7.168-7.015-4.921-.085-8.433,2.831-8.675,7.015" transform="translate(139.3 6.723)" fill="#434343"/>
      <path id="Path_41344" data-name="Path 41344" d="M111.407,5.207A5.207,5.207,0,1,1,106.2,0a5.208,5.208,0,0,1,5.207,5.207" transform="translate(102.762)" fill="#434343"/>
    </g>
  </g>
</svg>
