<svg xmlns="http://www.w3.org/2000/svg" width="51" height="51" viewBox="0 0 51 51">
  <g id="cash" transform="translate(-757 -190)">
    <path id="Icon_awesome-wallet" data-name="Icon awesome-wallet" d="M21.721,6.771H3.768a.754.754,0,1,1,0-1.507H21.853a.753.753,0,0,0,.754-.754A2.261,2.261,0,0,0,20.345,2.25H3.014A3.014,3.014,0,0,0,0,5.264V20.335a3.014,3.014,0,0,0,3.014,3.014H21.721a2.332,2.332,0,0,0,2.392-2.261V9.032A2.332,2.332,0,0,0,21.721,6.771Zm-2.129,9.8A1.507,1.507,0,1,1,21.1,15.06,1.507,1.507,0,0,1,19.592,16.567Z" transform="translate(770 202.75)" fill="#fff"/>
    <g id="Ellipse_25" data-name="Ellipse 25" transform="translate(757 190)" fill="none" stroke="#60d760" stroke-width="2">
      <circle cx="25.5" cy="25.5" r="25.5" stroke="none"/>
      <circle cx="25.5" cy="25.5" r="24.5" fill="none"/>
    </g>
  </g>
</svg>
