<svg xmlns="http://www.w3.org/2000/svg" width="51" height="51" viewBox="0 0 51 51">
  <g id="gift" transform="translate(-1130 -190)">
    <path id="Icon_awesome-gift" data-name="Icon awesome-gift" d="M1.521,22.028A1.52,1.52,0,0,0,3.043,23.55H10.65V15.943H1.521ZM13.693,23.55H21.3a1.52,1.52,0,0,0,1.521-1.521V15.943H13.693ZM22.821,8.336h-2a4.146,4.146,0,0,0,.48-1.9A4.19,4.19,0,0,0,17.116,2.25c-1.978,0-3.257,1.013-4.9,3.247C10.579,3.263,9.3,2.25,7.322,2.25A4.19,4.19,0,0,0,3.138,6.434a4.087,4.087,0,0,0,.48,1.9h-2.1A1.52,1.52,0,0,0,0,9.857v3.8a.763.763,0,0,0,.761.761H23.582a.763.763,0,0,0,.761-.761v-3.8A1.52,1.52,0,0,0,22.821,8.336Zm-15.5,0a1.9,1.9,0,1,1,0-3.8c.946,0,1.645.157,4.094,3.8H7.317Zm9.8,0H13.022c2.444-3.637,3.124-3.8,4.094-3.8a1.9,1.9,0,1,1,0,3.8Z" transform="translate(1143 202.75)" fill="#fff"/>
    <g id="Ellipse_26" data-name="Ellipse 26" transform="translate(1130 190)" fill="none" stroke="#60d760" stroke-width="2">
      <circle cx="25.5" cy="25.5" r="25.5" stroke="none"/>
      <circle cx="25.5" cy="25.5" r="24.5" fill="none"/>
    </g>
  </g>
</svg>
